<svg xmlns="http://www.w3.org/2000/svg" viewBox="0 0 100 100" width="100" height="100" fill="none">
  <circle cx="50" cy="50" r="48" fill="#FFFDF8" stroke="#4A2E18" stroke-width="3"/>
  <!-- Kebaya Rumahan Ibu yang Hangat (Warna Terracotta Lembut & Bunga-bunga) -->
  <path d="M22 95 C22 75 35 68 50 68 C65 68 78 75 78 95 Z" fill="#D97E26" stroke="#4A2E18" stroke-width="2.5"/>
  <path d="M42 68 L50 82 L58 68" stroke="#FBEFCE" stroke-width="2" fill="none"/>
  <!-- Kepala -->
  <circle cx="50" cy="45" r="21" fill="#FCD5B5" stroke="#4A2E18" stroke-width="2.5"/>
  <!-- Rambut Cepol Santai Rumahan -->
  <path d="M28 42 C28 22 40 18 50 18 C62 18 72 24 72 44 C66 32 58 26 50 26 C42 26 34 32 28 42 Z" fill="#3D2214"/>
  <circle cx="50" cy="18" r="8" fill="#3D2214" stroke="#4A2E18" stroke-width="1.5"/>
  <rect x="44" y="16" width="12" height="4" rx="2" fill="#D4A343"/> <!-- Jepit rambut rumahan -->
  <!-- Anting Giwang Sederhana -->
  <circle cx="28" cy="46" r="2" fill="#D4A343"/>
  <circle cx="72" cy="46" r="2" fill="#D4A343"/>
  <!-- Mata Keibuan Lembut -->
  <circle cx="43" cy="44" r="2.4" fill="#2A170A"/>
  <circle cx="57" cy="44" r="2.4" fill="#2A170A"/>
  <path d="M40 38 Q43 36 46 38" stroke="#4A2E18" stroke-width="1.6" stroke-linecap="round"/>
  <path d="M54 38 Q57 36 60 38" stroke="#4A2E18" stroke-width="1.6" stroke-linecap="round"/>
  <!-- Senyum Hangat Penuh Kasih Ibu -->
  <path d="M45 53 Q50 58 55 53" stroke="#BF533B" stroke-width="2" stroke-linecap="round" fill="none"/>
  <circle cx="37" cy="48" r="2.5" fill="#FF8D7B" opacity="0.4"/>
  <circle cx="63" cy="48" r="2.5" fill="#FF8D7B" opacity="0.4"/>
</svg>
