<svg xmlns="http://www.w3.org/2000/svg" viewBox="0 0 100 100" width="100" height="100" fill="none">
  <circle cx="50" cy="50" r="48" fill="#FBF5E8" stroke="#4A2E18" stroke-width="3"/>
  <!-- Badan / Seragam / Batik Cokelat -->
  <path d="M22 95 C22 75 35 68 50 68 C65 68 78 75 78 95 Z" fill="#C05A3E" stroke="#4A2E18" stroke-width="2.5"/>
  <path d="M42 68 L50 78 L58 68" stroke="#FFF" stroke-width="2" fill="none"/>
  <!-- Kepala Siswa Laki-laki Dimas -->
  <circle cx="50" cy="45" r="22" fill="#FCD5B5" stroke="#4A2E18" stroke-width="2.5"/>
  <!-- Rambut Rapi -->
  <path d="M30 40 C30 25 45 23 50 23 C62 23 70 28 70 40 C65 32 55 33 50 33 C42 33 35 36 30 40 Z" fill="#2F1F17"/>
  <!-- Mata & Alis -->
  <circle cx="43" cy="44" r="3" fill="#2F1F17"/>
  <circle cx="57" cy="44" r="3" fill="#2F1F17"/>
  <path d="M40 38 Q43 36 46 38" stroke="#4A2E18" stroke-width="1.5" stroke-linecap="round"/>
  <path d="M54 38 Q57 36 60 38" stroke="#4A2E18" stroke-width="1.5" stroke-linecap="round"/>
  <!-- Senyum Sopan -->
  <path d="M45 53 Q50 58 55 53" stroke="#4A2E18" stroke-width="2" stroke-linecap="round" fill="none"/>
  <circle cx="39" cy="48" r="3" fill="#FF8D7B" opacity="0.5"/>
  <circle cx="61" cy="48" r="3" fill="#FF8D7B" opacity="0.5"/>
</svg>
