<svg xmlns="http://www.w3.org/2000/svg" viewBox="0 0 100 100" width="100" height="100" fill="none">
  <circle cx="50" cy="50" r="48" fill="#FBF5E8" stroke="#4A2E18" stroke-width="3"/>
  <!-- Kaos Santai Budi -->
  <path d="M22 95 C22 75 35 68 50 68 C65 68 78 75 78 95 Z" fill="#D9822B" stroke="#4A2E18" stroke-width="2.5"/>
  <circle cx="50" cy="74" r="3" fill="#FFF"/>
  <!-- Wajah Budi yang Ceria -->
  <circle cx="50" cy="45" r="22" fill="#FCD5B5" stroke="#4A2E18" stroke-width="2.5"/>
  <!-- Rambut Cepak Aktif -->
  <path d="M28 42 C28 24 40 22 50 22 C62 22 72 26 72 42 C68 35 60 30 50 30 C40 30 32 35 28 42 Z" fill="#2F1F17"/>
  <!-- Mata & Senyum Lebar -->
  <circle cx="42" cy="44" r="3" fill="#2F1F17"/>
  <circle cx="58" cy="44" r="3" fill="#2F1F17"/>
  <path d="M44 52 Q50 60 56 52 Z" fill="#C05A3E" stroke="#4A2E18" stroke-width="1.8"/>
  <circle cx="37" cy="49" r="3" fill="#FF8D7B" opacity="0.6"/>
  <circle cx="63" cy="49" r="3" fill="#FF8D7B" opacity="0.6"/>
</svg>
